<?xml version="1.0" encoding="UTF-8"?>
<svg xmlns="http://www.w3.org/2000/svg" xmlns:xlink="http://www.w3.org/1999/xlink" width="48px" height="48px" viewBox="0 0 48 48" version="1.1">
<g id="surface1">
<path style=" stroke:none;fill-rule:nonzero;fill:rgb(0%,0%,0%);fill-opacity:1;" d="M 24 1.5 C 11.574219 1.5 1.5 11.574219 1.5 24 C 1.5 36.425781 11.574219 46.5 24 46.5 C 36.425781 46.5 46.5 36.425781 46.5 24 C 46.5 11.574219 36.425781 1.5 24 1.5 M 33.828125 26.214844 C 29.632812 29.683594 23.261719 28.910156 19.601562 24.484375 C 15.941406 20.054688 16.375 13.65625 20.570312 10.1875 C 24.765625 6.71875 31.132812 7.492188 34.792969 11.917969 C 38.457031 16.347656 38.019531 22.746094 33.828125 26.214844 "/>
<path style=" stroke:none;fill-rule:nonzero;fill:rgb(0%,0%,0%);fill-opacity:1;" d="M 30.15625 15.554688 C 30.714844 14.460938 30.707031 13.246094 29.980469 12.082031 C 28.71875 10.054688 26.1875 9.660156 23.851562 11.117188 C 21.496094 12.582031 20.730469 15.023438 21.988281 17.050781 C 22.714844 18.214844 23.800781 18.757812 25.042969 18.734375 C 24.210938 20.097656 24.179688 21.585938 25.027344 22.949219 C 26.367188 25.101562 29.011719 25.570312 31.773438 23.855469 C 34.53125 22.136719 35.28125 19.558594 33.945312 17.402344 C 33.09375 16.042969 31.746094 15.410156 30.15625 15.554688 M 24.035156 15.953125 C 23.367188 14.875 23.6875 13.554688 24.898438 12.804688 C 26.09375 12.0625 27.449219 12.363281 28.105469 13.417969 C 28.765625 14.480469 28.449219 15.84375 27.253906 16.589844 C 26.042969 17.34375 24.707031 17.027344 24.035156 15.953125 M 30.644531 22.042969 C 29.316406 22.871094 27.832031 22.546875 27.109375 21.382812 C 26.40625 20.25 26.804688 18.832031 28.132812 18.007812 C 29.464844 17.179688 30.925781 17.464844 31.617188 18.578125 C 32.332031 19.726562 31.976562 21.214844 30.644531 22.042969 "/>
</g>
</svg>
